<svg width="22" height="22" viewBox="0 0 22 22" fill="none" xmlns="http://www.w3.org/2000/svg">
<path d="M19.8889 8.5L18.2383 17.7845C18.0347 18.9299 17.9329 19.5026 17.6671 19.931C17.4327 20.3088 17.11 20.6062 16.7348 20.7907C16.3092 21 15.7901 21 14.7518 21H7.24819C6.20989 21 5.69073 21 5.26521 20.7907C4.88997 20.6062 4.56733 20.3088 4.33293 19.931C4.06712 19.5026 3.96531 18.9299 3.76168 17.7845L2.11111 8.5M19.8889 8.5H17.6667M19.8889 8.5H21M2.11111 8.5H1M2.11111 8.5H4.33333M17.6667 8.5H4.33333M17.6667 8.5L14.3333 1M4.33333 8.5L7.66667 1M7.66667 12.25V16M11 12.25V16M14.3333 12.25V16" stroke="black" stroke-width="1.5" stroke-linecap="round" stroke-linejoin="round"/>
</svg>
