<svg width="16" height="11" viewBox="0 0 16 11" fill="none" xmlns="http://www.w3.org/2000/svg">
<path fill-rule="evenodd" clip-rule="evenodd" d="M0 0.916667C0 0.41041 0.397973 0 0.888889 0H15.1111C15.602 0 16 0.41041 16 0.916667C16 1.42292 15.602 1.83333 15.1111 1.83333H0.888889C0.397973 1.83333 0 1.42292 0 0.916667ZM2.66667 5.5C2.66667 4.99372 3.06464 4.58333 3.55556 4.58333H12.4444C12.9354 4.58333 13.3333 4.99372 13.3333 5.5C13.3333 6.00628 12.9354 6.41667 12.4444 6.41667H3.55556C3.06464 6.41667 2.66667 6.00628 2.66667 5.5ZM5.33333 10.0833C5.33333 9.57706 5.73131 9.16667 6.22222 9.16667H9.77778C10.2687 9.16667 10.6667 9.57706 10.6667 10.0833C10.6667 10.5896 10.2687 11 9.77778 11H6.22222C5.73131 11 5.33333 10.5896 5.33333 10.0833Z" fill="black"/>
</svg>
