<svg width="68" height="17" viewBox="0 0 68 17" fill="none" xmlns="http://www.w3.org/2000/svg">
<path d="M-0.0079999 17V0.199999H3.208L13.12 12.296H11.56V0.199999H15.4V17H12.208L2.272 4.904H3.832V17H-0.0079999ZM22.9508 6.968H31.0388V9.992H22.9508V6.968ZM23.2388 13.88H32.3828V17H19.3748V0.199999H32.0708V3.32H23.2388V13.88ZM33.3923 17L40.6163 7.04V9.872L33.7043 0.199999H38.1203L42.8963 6.944L41.0483 6.968L45.7523 0.199999H49.9763L43.1123 9.704V6.92L50.3843 17H45.8963L40.9523 9.872H42.7283L37.8563 17H33.3923ZM50.2673 17L57.4913 7.04V9.872L50.5793 0.199999H54.9953L59.7713 6.944L57.9233 6.968L62.6273 0.199999H66.8513L59.9873 9.704V6.92L67.2593 17H62.7713L57.8273 9.872H59.6033L54.7313 17H50.2673Z" fill="black"/>
</svg>
