<svg width="20" height="20" viewBox="0 0 20 20" fill="none" xmlns="http://www.w3.org/2000/svg">
<path d="M9.11258 0C14.1373 0 18.2252 4.08789 18.2252 9.11258C18.2252 11.2861 17.4599 13.284 16.185 14.852L20 18.6669L18.6669 20L14.8519 16.185C13.2841 17.4598 11.2861 18.2252 9.11262 18.2252C4.08789 18.2252 0 14.1373 0 9.11258C0 4.08789 4.08789 0 9.11258 0ZM9.11258 16.3398C13.0977 16.3398 16.3398 13.0977 16.3398 9.11258C16.3398 5.1275 13.0977 1.88535 9.11258 1.88535C5.12746 1.88535 1.88535 5.1275 1.88535 9.11258C1.88535 13.0977 5.1275 16.3398 9.11258 16.3398Z" fill="black"/>
</svg>
