<svg width="16" height="16" viewBox="0 0 16 16" fill="none" xmlns="http://www.w3.org/2000/svg">
<path d="M7.42157 1.75635C7.60483 1.32521 7.6965 1.10964 7.82411 1.04326C7.93494 0.985581 8.06508 0.985581 8.17591 1.04326C8.30352 1.10964 8.39519 1.32521 8.57845 1.75635L10.0382 5.19041C10.0924 5.31786 10.1195 5.38159 10.1615 5.43039C10.1985 5.47357 10.2439 5.50811 10.2945 5.53175C10.3517 5.55848 10.4179 5.56581 10.5502 5.58045L14.1159 5.97509C14.5636 6.02463 14.7874 6.0494 14.8871 6.15614C14.9736 6.24885 15.0138 6.37868 14.9958 6.50705C14.975 6.65481 14.8078 6.81277 14.4734 7.12879L11.8099 9.64582C11.7111 9.73921 11.6616 9.78594 11.6303 9.8428C11.6026 9.89319 11.5853 9.94906 11.5795 10.0068C11.5729 10.0722 11.5867 10.1404 11.6143 10.2769L12.3583 13.9549C12.4517 14.4167 12.4984 14.6475 12.4324 14.7798C12.375 14.8949 12.2697 14.9751 12.1477 14.9967C12.0073 15.0216 11.8123 14.9038 11.4224 14.6679L8.31642 12.7894C8.20116 12.7197 8.14353 12.6849 8.08226 12.6712C8.02803 12.6592 7.97198 12.6592 7.91776 12.6712C7.85649 12.6849 7.79886 12.7197 7.68359 12.7894L4.57767 14.6679C4.18773 14.9038 3.99276 15.0216 3.85232 14.9967C3.73032 14.9751 3.625 14.8949 3.56766 14.7798C3.50164 14.6475 3.54834 14.4167 3.64174 13.9549L4.38568 10.2769C4.41329 10.1404 4.4271 10.0722 4.42055 10.0068C4.41474 9.94906 4.39743 9.89319 4.36972 9.8428C4.33841 9.78594 4.28899 9.73921 4.19014 9.64582L1.52662 7.12879C1.19223 6.81277 1.02503 6.65481 1.00424 6.50705C0.986189 6.37868 1.02641 6.24885 1.11297 6.15614C1.21262 6.0494 1.43645 6.02463 1.88411 5.97509L5.44983 5.58045C5.58217 5.56581 5.64833 5.55848 5.70555 5.53175C5.75618 5.50811 5.8015 5.47357 5.8386 5.43039C5.88052 5.38159 5.90761 5.31786 5.96179 5.19041L7.42157 1.75635Z" fill="#FF7575" stroke="#FF2626" stroke-width="2" stroke-linecap="round" stroke-linejoin="round"/>
</svg>
